<svg xmlns="http://www.w3.org/2000/svg" width="82" height="40" viewBox="0 0 82 40" fill="none">
  <path d="M35.7579 29.7489C34.4054 29.5421 33.8332 28.685 33.9113 27.5327C33.9893 26.3801 34.4575 25.5824 36.122 25.6413C38.3068 25.7301 40.6216 25.7891 42.9624 25.8187C42.9103 25.1981 42.8584 24.4002 42.8584 23.7798C42.8584 23.0409 42.9363 22.3613 43.2224 21.8293C41.8439 21.8293 40.5175 21.7999 39.4251 21.7703C36.3821 21.6816 35.9919 20.5588 35.9659 17.7514C35.94 14.7373 35.9659 13.053 36.0701 11.5754C36.1741 10.2752 36.7463 9.62512 38.1507 9.59557C42.4941 9.53645 48.0601 9.38871 51.9355 9.59557C53.3399 9.65467 53.9121 10.2752 54.0161 11.5754C54.1201 13.053 54.1461 14.7373 54.1201 17.7514C54.0942 20.5588 53.7041 21.5338 50.6609 21.7408C49.6987 21.7999 48.3462 21.8293 46.8637 21.8589C47.1498 22.3613 47.2538 23.0115 47.2538 23.7502C47.2538 24.489 47.2278 25.2277 47.2018 25.8187C49.4906 25.7595 51.7273 25.6413 53.8341 25.464C55.6026 25.3163 56.2269 26.4688 56.2269 27.6804C56.2269 28.8328 55.7587 29.4238 54.4323 29.5715C50.921 29.9558 40.8296 30.5172 35.7579 29.7489ZM39.9713 14.1168C39.9454 14.8555 39.9713 16.0376 39.9973 16.7764C40.0494 17.6037 40.2574 17.8106 41.0376 17.8402C43.0664 17.8992 47.0198 17.8992 49.0484 17.8402C49.8288 17.8106 50.0368 17.6037 50.0889 16.7764C50.1147 16.0376 50.1408 14.8555 50.1147 14.1168C50.0889 13.6735 50.0107 13.5553 49.5685 13.5258C47.774 13.378 42.3382 13.4076 40.5175 13.5258C40.0754 13.5553 39.9973 13.6735 39.9713 14.1168ZM66.7064 27.9167C65.5621 27.6212 65.3539 26.4688 65.8222 24.1639L66.0562 23.0705C65.4579 23.6911 64.5737 23.6025 64.0535 22.6568C63.8454 22.3022 63.5853 21.7703 63.1172 20.6474C62.7271 22.3909 62.363 24.0753 62.0248 25.4346C61.4526 27.7394 60.6463 28.1532 59.528 27.8871C58.3835 27.6212 58.3316 26.4688 58.7997 24.1639C59.3719 21.3271 60.3343 17.0718 61.1406 13.7917C59.502 13.8213 58.9558 13.2894 58.9037 12.3437C58.8518 11.1913 59.424 10.4821 60.6463 10.3934C62.2849 10.2752 62.9351 10.2752 64.4697 10.3343C65.7701 10.3934 66.3163 10.8958 66.2383 12.0482C66.1863 12.9938 65.6661 13.5848 64.8859 13.7326C64.6517 14.4714 64.4437 15.2693 64.2096 16.0966C64.8859 17.3969 65.5361 18.6085 66.0562 19.6427C66.3163 20.1451 66.4724 20.6474 66.5243 21.0906C67.1486 18.6675 67.9289 15.8603 68.6051 13.6735C67.1486 13.6735 66.6285 13.1416 66.5764 12.2255C66.5243 11.0731 67.0965 10.3343 68.319 10.2752C69.8275 10.1866 70.7378 10.1866 72.2723 10.2457C73.5728 10.3048 74.0409 10.7776 74.0409 11.93C74.0409 13.053 73.3386 13.6144 72.3504 13.6735L71.154 17.7218C72.1422 19.6723 73.1046 21.593 74.093 23.7502C74.7432 25.1685 74.6911 26.2619 73.9888 26.8529C73.3128 27.4145 72.2204 27.3553 71.466 25.9074C70.8939 24.814 70.3996 23.6911 69.8015 22.5387C69.5154 23.6025 69.2553 24.5775 69.0471 25.4346C68.4751 27.7394 67.8507 28.2122 66.7064 27.9167ZM74.8472 28.7146C75.1073 24.5186 75.1333 16.7172 74.8993 11.2799C74.8211 9.65467 75.1073 8.47266 76.7978 8.47266C77.9683 8.47266 78.6704 9.21141 78.7225 11.9596L78.8265 16.9241C79.4508 16.9241 79.7889 16.9537 80.3872 16.9831C81.3754 17.0423 81.9216 17.9583 81.9216 18.963C81.9216 19.9972 81.5315 21.1498 80.5952 21.2383C80.0229 21.2975 79.5548 21.2975 78.8786 21.2383C78.8786 23.8684 78.8265 26.9121 78.7486 28.7146C78.6704 30.6059 77.9162 31.8765 76.6158 31.7879C75.2113 31.6992 74.7172 30.6945 74.8472 28.7146Z" fill="#009652"/>
  <circle cx="8.27634" cy="36.0591" r="3.86777" fill="#009652" stroke="#009652" strokeWidth="0.146235"/>
  <circle cx="18.9167" cy="3.94089" r="3.86777" fill="#009652" stroke="#009652" strokeWidth="0.146235"/>
  <path d="M2.95606 13.8765L2.95605 23.5225C2.95605 26.9246 5.75655 28.9658 8.43703 28.9658C11.1175 28.9658 13.3979 26.9246 13.3979 23.5225C13.3979 20.1278 13.3712 17.1452 13.3979 16.0779C13.3979 12.4356 16.4385 11.0348 18.5588 11.0348C20.6792 11.0348 24.0398 11.9215 24.0398 16.4843C24.0398 20.1345 24.0398 24.8299 24.0398 26.9246" stroke="#009652" stroke-width="5.84942" stroke-linecap="round"/>
</svg>